<svg xmlns="http://www.w3.org/2000/svg" xmlns:xlink="http://www.w3.org/1999/xlink" viewBox="0 0 392.33 415.63"><defs><style>.cls-1,.cls-14,.cls-21,.cls-8{fill:none;}.cls-2{fill:#f0ece7;}.cls-3{fill:#d9d5d1;}.cls-4{fill:#424b87;}.cls-5{fill:#25294d;}.cls-6{fill:#323768;}.cls-7{fill:#fff;}.cls-8{stroke:#25294d;stroke-width:0.5px;}.cls-14,.cls-21,.cls-8{stroke-miterlimit:10;}.cls-9{fill:#89b3d6;}.cls-10{fill:#efa97c;}.cls-11{fill:#593119;}.cls-12{fill:#cf885f;}.cls-13{fill:#6a89b8;}.cls-14,.cls-21{stroke:#0a0604;}.cls-15{fill:#cc76bb;}.cls-16{fill:#bd63ab;}.cls-17{fill:#a3582c;}.cls-18{clip-path:url(#clip-path);}.cls-19{fill:#0a0604;}.cls-20{clip-path:url(#clip-path-2);}.cls-21{stroke-width:0.25px;}.cls-22{fill:#29160b;}</style><clipPath id="clip-path" transform="translate(-59.55 -48.32)"><path class="cls-1" d="M368.23,138.75a9.44,9.44,0,0,1,3.67-2.58s1.91-.7,4.44,2.77A7.1,7.1,0,0,1,368.23,138.75Z"/></clipPath><clipPath id="clip-path-2" transform="translate(-59.55 -48.32)"><path class="cls-1" d="M362.94,138.12a7.86,7.86,0,0,0-2-3.09s-2-.93-2.87,1.93C358.08,137,359.27,140,362.94,138.12Z"/></clipPath></defs><title>addTaskImage</title><g id="BACKGROUND"><polygon class="cls-2" points="307.83 0 323.71 269.49 109.44 309.28 28.44 73.38 307.83 0"/></g><g id="OBJECTS"><ellipse class="cls-3" cx="136.61" cy="382.38" rx="129.97" ry="9.83"/><rect class="cls-4" y="140.43" width="267.72" height="187.34" rx="13"/><rect class="cls-5" x="12.94" y="152.2" width="241.84" height="163.35"/><path class="cls-6" d="M314.33,292.57c-23.49,1.55-48.93.09-74.42-9.37-49.24-18.27-64.35-53.64-90.71-82.69H72.49v63.66c9.87-.62,17.5-2.92,28.7-3.2,58-1.44,100.85,54.32,139.36,102.89h73.78Z" transform="translate(-59.55 -48.32)"/><rect class="cls-5" x="83.84" y="372.4" width="100.05" height="12.08"/><path class="cls-4" d="M243.43,420.71,236,417c-14.78-7.3-23.68-19.72-23.68-33v-7.92H174.52V384c0,13.31-8.91,25.73-23.68,33l-7.46,3.67Z" transform="translate(-59.55 -48.32)"/><polyline class="cls-5" points="114.97 327.77 152.75 327.77 114.97 335.69 114.97 327.77"/><rect class="cls-4" x="46.65" y="41.18" width="175.55" height="256.71" rx="3.97"/><rect class="cls-7" x="51.5" y="47.09" width="164.72" height="244.97"/><rect class="cls-7" x="51.5" y="47.09" width="164.72" height="244.97"/><line class="cls-8" x1="194.71" y1="116.56" x2="82.21" y2="116.56"/><line class="cls-8" x1="82.21" y1="133.29" x2="194.71" y2="133.29"/><line class="cls-8" x1="82.21" y1="150.02" x2="194.71" y2="150.02"/><line class="cls-8" x1="82.21" y1="166.75" x2="194.71" y2="166.75"/><line class="cls-8" x1="82.21" y1="183.48" x2="194.71" y2="183.48"/><line class="cls-8" x1="82.21" y1="200.21" x2="194.71" y2="200.21"/><line class="cls-8" x1="82.21" y1="216.94" x2="194.71" y2="216.94"/><line class="cls-8" x1="82.21" y1="233.67" x2="194.71" y2="233.67"/><line class="cls-8" x1="82.21" y1="250.4" x2="194.71" y2="250.4"/><path class="cls-8" d="M111.1,139.77a9,9,0,0,1-6.89-8.44c0-4.86,4.34-8.8,9.69-8.8s9.69,3.94,9.69,8.8a8.08,8.08,0,0,1-.76,3.43" transform="translate(-59.55 -48.32)"/><ellipse class="cls-5" cx="63.27" cy="85.38" rx="2.31" ry="1.73"/><path class="cls-8" d="M111.1,173.53a9,9,0,0,1-6.89-8.43c0-4.87,4.34-8.81,9.69-8.81s9.69,3.94,9.69,8.81a8.15,8.15,0,0,1-.76,3.43" transform="translate(-59.55 -48.32)"/><path class="cls-5" d="M125.12,167.46c0,1-1,1.73-2.31,1.73s-2.3-.77-2.3-1.73,1-1.73,2.3-1.73S125.12,166.5,125.12,167.46Z" transform="translate(-59.55 -48.32)"/><path class="cls-8" d="M111.1,207.3a9,9,0,0,1-6.89-8.44c0-4.86,4.34-8.81,9.69-8.81s9.69,3.95,9.69,8.81a8.11,8.11,0,0,1-.76,3.43" transform="translate(-59.55 -48.32)"/><path class="cls-5" d="M125.12,201.22c0,1-1,1.73-2.31,1.73s-2.3-.77-2.3-1.73,1-1.73,2.3-1.73S125.12,200.27,125.12,201.22Z" transform="translate(-59.55 -48.32)"/><path class="cls-8" d="M111.1,241.06a9,9,0,0,1-6.89-8.44c0-4.86,4.34-8.8,9.69-8.8s9.69,3.94,9.69,8.8a8.08,8.08,0,0,1-.76,3.43" transform="translate(-59.55 -48.32)"/><path class="cls-5" d="M125.12,235c0,.95-1,1.73-2.31,1.73s-2.3-.78-2.3-1.73,1-1.73,2.3-1.73S125.12,234,125.12,235Z" transform="translate(-59.55 -48.32)"/><path class="cls-8" d="M111.1,274.82a9,9,0,0,1-6.89-8.43c0-4.87,4.34-8.81,9.69-8.81s9.69,3.94,9.69,8.81a8.15,8.15,0,0,1-.76,3.43" transform="translate(-59.55 -48.32)"/><ellipse class="cls-5" cx="63.27" cy="220.44" rx="2.31" ry="1.73"/><path class="cls-8" d="M111.1,308.59a9,9,0,0,1-6.89-8.44c0-4.86,4.34-8.81,9.69-8.81s9.69,4,9.69,8.81a8.08,8.08,0,0,1-.76,3.43" transform="translate(-59.55 -48.32)"/><ellipse class="cls-5" cx="63.27" cy="254.2" rx="2.31" ry="1.73"/><rect class="cls-8" x="82.21" y="63.33" width="32.74" height="36.74"/><polygon class="cls-9" points="194.71 82.83 185.39 75.21 176.07 82.83 176.07 47.09 194.71 47.09 194.71 82.83"/><ellipse class="cls-3" cx="307.54" cy="402.93" rx="61.98" ry="10.58"/><path class="cls-10" d="M409,430.45s-28,31.3-24.33,32.31,30-11.28,30.58-13.26.14-13.78.14-13.78Z" transform="translate(-59.55 -48.32)"/><path class="cls-4" d="M384.68,462.76c-2.17-.94,7.85-13.2,15.75-22.47,2.16-1.7,3.76-1.89,4.62-1.67,2.46.64,4,1.5,4,4.71,0,4,6.42,2.48,6.53-1.82h0c0,.94.54,5.47-.28,8-.24.74-5.63,4.43-5.63,4.43C399.19,463.91,390.94,465.49,384.68,462.76Z" transform="translate(-59.55 -48.32)"/><path class="cls-7" d="M409.8,451.25l-12.39,9c-.36-4.89-4.71-5.7-8.78-5.36-3.13,4.24-5,7.45-3.95,7.91,6.26,2.73,14.51,1.15,24.95-8.83,0,0,5.39-3.69,5.63-4.43a16.55,16.55,0,0,0,.41-5.24C413.22,446.17,409.8,451.25,409.8,451.25Z" transform="translate(-59.55 -48.32)"/><path class="cls-7" d="M398.62,443c2.08-1.07,4.7.08,6,1.53.18.23.37.44.53.67-1.78-1.36-4-2.74-6.54-2.2Z" transform="translate(-59.55 -48.32)"/><path class="cls-7" d="M396.4,445c2.77-1.19,6.16.24,7.79,2.2-2.22-1.44-4.85-2.68-7.79-2.2Z" transform="translate(-59.55 -48.32)"/><path class="cls-7" d="M394.72,447c2.78-1.19,6.17.24,7.8,2.2-2.22-1.44-4.85-2.68-7.8-2.2Z" transform="translate(-59.55 -48.32)"/><path class="cls-7" d="M406.66,443.45a4.72,4.72,0,0,1-3.65-1.22h.33c1.81,0,5.21-.45,4.32-2.51-.88-1.45-4.48,2-5.25,2.6A14.32,14.32,0,0,0,401,438s0,0,0,0,.05,0,0,0a1.42,1.42,0,0,0-.1,1,15.24,15.24,0,0,0,1,3.3c-1.13.38-2.29-.29-3.18-.8a4.43,4.43,0,0,0,3,.67l-.05.11a15.11,15.11,0,0,1-.87-2.13c-.19-.79-.59-1.5-.16-2.34a.46.46,0,0,1,.3-.16.49.49,0,0,1,.35.1c.94,1.22,1.07,2.74,1.48,4.12l-.48-.11c1-.9,4.53-4.1,5.75-2.12,1.07,2.4-2.69,3-4.8,2.9l.11-.19a4.4,4.4,0,0,0,3.22,1.19Z" transform="translate(-59.55 -48.32)"/><path class="cls-10" d="M349.53,443.84a71.51,71.51,0,0,0-2.29-7.33c-2.19-5.27-5.3-10-6.83-6.12-1.07,2.69-14.12,18.93-24.65,21.62,0,0-2.79,4.9,13.94,2.05S351.49,449.47,349.53,443.84Z" transform="translate(-59.55 -48.32)"/><path class="cls-4" d="M311.91,457.33c15.07,3.8,30.18-5.37,30.18-5.37,7.94-.38,9.4-2.49,7.44-8.12l-.16-.44h0l-.14.1a4.77,4.77,0,0,1-7.5-3.68c-.13-2.69-.48-5.33-1.29-6.53a1.61,1.61,0,0,0-1.56-.76h0c-.27.31-.56.65-.89,1l-.1.11c-.3.33-.6.66-.95,1-5.06,5.35-14.66,13.73-22.27,16.38a8.48,8.48,0,0,0-3.83,2.54C309.3,455.48,309.74,456.79,311.91,457.33Z" transform="translate(-59.55 -48.32)"/><path class="cls-7" d="M342.09,452s-15.11,9.17-30.18,5.37c-2.17-.54-2.61-1.85-1.07-3.73a8.48,8.48,0,0,1,3.83-2.54,26.81,26.81,0,0,0,3.71-1.65,13.83,13.83,0,0,1,4.23,5.79c9.28-.66,21.41-6,21.41-6a19.2,19.2,0,0,1,5.54-5.22C351.47,449.49,350,451.59,342.09,452Z" transform="translate(-59.55 -48.32)"/><path class="cls-7" d="M331,439c2.64-.39,4.63,1.5,6.24,3.31-.13-.29-.29-.57-.44-.86-1.13-1.89-3.6-3.53-5.8-2.45Z" transform="translate(-59.55 -48.32)"/><path class="cls-7" d="M328.54,441.2c3-.3,5.46,1.46,7.5,3.43-1.39-2.54-4.6-4.6-7.5-3.43Z" transform="translate(-59.55 -48.32)"/><path class="cls-7" d="M326.64,443.44c3-.29,5.46,1.47,7.5,3.43-1.39-2.54-4.6-4.59-7.5-3.43Z" transform="translate(-59.55 -48.32)"/><path class="cls-7" d="M339,440.34a4,4,0,0,1-3.07-1.76l-.13.22c1.64.15,3.8.32,4.91-1.2.46-.82.5-2.15-.45-2.63a3.31,3.31,0,0,0-2.6.69,17.44,17.44,0,0,0-2.72,2.1l.47.18c-.14-.73-.36-6.26-1.63-5.12-.54,1-.23,1.87-.13,2.85a21.85,21.85,0,0,0,.62,2.66l.06-.13a1.41,1.41,0,0,1-.74,0,5.48,5.48,0,0,1-2.15-1.12c.82.7,1.83,1.58,3,1.31l.09,0c-.2-.92-.39-1.84-.51-2.76a5.59,5.59,0,0,1,.09-2.48,22.69,22.69,0,0,1,.76,4.84l0,.56.43-.38c.85-.68,4.39-4,5.1-2.25.65,2.58-2.79,2.8-4.59,2.62l-.33,0a4.18,4.18,0,0,0,3.49,1.84Z" transform="translate(-59.55 -48.32)"/><path class="cls-11" d="M399.42,131.63s1.27,8.52,3.31,10.08c10.08,7.72,2.54,12.1,8.8,14.28s.7,24.15.7,24.15-36.48,3.1-63-6.93l4.86-7.42a1.52,1.52,0,0,0-.27-1.92c-3.66-3.63,5.65-15.93,5.65-15.93Z" transform="translate(-59.55 -48.32)"/><path class="cls-11" d="M357.05,151.34s-10.87,12.27-4,18.08l.83-1.56s-4.71-6.78,3.13-15.19Z" transform="translate(-59.55 -48.32)"/><path class="cls-4" d="M346.58,242.86s-15.31,93.63-12.65,104.29,3.56,14.42,3.56,29.07-4.7,58.8-4.7,58.8,9.54,4,16,.68c9.12-33.8,11-34.3,10-79.18-.25-11.31,14.29-63.15,14.29-63.15l6.89-1.88s2.35,13.91,6.53,28.56,5.16,42.18,5.67,52.84,10.74,63.91,10.74,63.91l14.28.68s-.59-67.92-2.15-78.58-2.65-60.82-1.32-69.4c4.42-28.49-13.45-51.64-13.45-51.64Z" transform="translate(-59.55 -48.32)"/><path class="cls-10" d="M403.32,211.49s1.5,20.56,2.48,24.73c3.21,13.57,7.41,60.84,9.88,65.46a31.28,31.28,0,0,1,5.93-4.29s5.73-39.23,1.18-51-2.51-37.68-2.51-37.68Z" transform="translate(-59.55 -48.32)"/><path class="cls-12" d="M420.25,211.14c-4.26.94-12.71,1.84-16.79,2.24.11,1.5.29,3.74.5,6.27,5.62.14,12.52-1.18,15.91-1.91C419.79,215.09,420.25,212.73,420.25,211.14Z" transform="translate(-59.55 -48.32)"/><polygon class="cls-10" points="270.28 155.22 267.59 167.43 281.07 191.44 289 154.3 270.28 155.22"/><path class="cls-12" d="M329.83,203.54,328,212h0s8.38,10.35,9.16,14.92A22.09,22.09,0,0,0,333,214.74l2.06-11.46Z" transform="translate(-59.55 -48.32)"/><path class="cls-3" d="M329.92,203.09s10.94.07,15.2-.51l.78,4.58s-11.41,1.19-17.07,0Z" transform="translate(-59.55 -48.32)"/><path class="cls-9" d="M350.08,172l16.85-6.23H388.8L408,174.92a18.31,18.31,0,0,1,11.09,15.42l5.2,24.39s-7.87,3.94-20.55,2.63l-3.5-10.06-1.8,13.13,5.92,21.69s-30.43,19.22-58.42,2.6L348.55,219s-7.37-.36-3.27-16.32c0,0-12.25.43-19.9-2.41,0,0,14.42-13.27,18.59-22C344.78,176.64,348.34,172.74,350.08,172Z" transform="translate(-59.55 -48.32)"/><path class="cls-13" d="M400.2,207.45a61,61,0,0,1,5.2-15.26,61.42,61.42,0,0,1-5.2,15.26Z" transform="translate(-59.55 -48.32)"/><path class="cls-13" d="M396.37,215.4C376.69,226,348.55,219,348.55,219l.16,5s18.86,1.54,30.89-1.13S396.37,215.4,396.37,215.4Z" transform="translate(-59.55 -48.32)"/><path class="cls-10" d="M388.8,165.81s-3.17-.51-4.17-4.6c-.87-3.54.23-10,2.42-17.88l-17.39,3.25s.19,18.16-2.73,19.23h0c-3.34,7.33,1.54,9.49,12.72,5.5a24.62,24.62,0,0,0,6.4-3.46Z" transform="translate(-59.55 -48.32)"/><path class="cls-12" d="M370.27,151.83s.14,4-2.19,12.45c12.26-.75,16.29-11.64,16.29-11.64l1-1.5a27,27,0,0,1,.27-3.7Z" transform="translate(-59.55 -48.32)"/><path class="cls-10" d="M361.49,127.81s-12.28,23.42,2.85,32c7.45,4.22,26.13-14.94,28.11-18s6.37-13,.53-17.13S370.93,112.77,361.49,127.81Z" transform="translate(-59.55 -48.32)"/><path class="cls-11" d="M381.14,133.24s-2.1-3.23-5.49-3c-1.92.14-.93,1.6.15,2.41S381.54,135.09,381.14,133.24Z" transform="translate(-59.55 -48.32)"/><path class="cls-14" d="M404.77,127" transform="translate(-59.55 -48.32)"/><path class="cls-13" d="M344,185.44a37.79,37.79,0,0,1,2.46,4.88c-.76,2.13-1.53,4.26-2.39,6.35s-1.7,4.05-2.7,6c.53-2.15,1.16-4.25,1.86-6.33s1.45-4.14,2.23-6.19v.35a36.13,36.13,0,0,1-1.47-5.08Z" transform="translate(-59.55 -48.32)"/><path class="cls-11" d="M363.62,128.37s-3.22-1-4.26,1.09c-.58,1.15.89,1.56,1.9,1.49S365.17,129.36,363.62,128.37Z" transform="translate(-59.55 -48.32)"/><polygon class="cls-12" points="347.37 194.05 350.08 198.03 353.39 192.45 350.38 203.16 347.37 194.05"/><path class="cls-15" d="M451.88,321h0a29.09,29.09,0,0,1-18.78,16.07h0L272.31,149.22h0a29.15,29.15,0,0,0,18.79-16.08h0Z" transform="translate(-59.55 -48.32)"/><path class="cls-16" d="M272.31,149.22,432,335.72l11.5-3.93-160.53-188A29.69,29.69,0,0,1,272.31,149.22Z" transform="translate(-59.55 -48.32)"/><path class="cls-10" d="M258,113.48l14.32,35.74h0a25,25,0,0,0,18.79-16.08h0Z" transform="translate(-59.55 -48.32)"/><path class="cls-15" d="M264.26,129.12a11.93,11.93,0,0,0,8.22-7L258,113.48Z" transform="translate(-59.55 -48.32)"/><path class="cls-10" d="M314,204.54s.32,2.37,6.4-1.26c0,0,18.95,25.3,20.16,30.73,1,4.35-.08,6.15-.91,9.07a1.75,1.75,0,0,1-1.79,1.16c-3.17-.15-11.51-.82-15.32-10.47C317.61,221.35,314,204.54,314,204.54Z" transform="translate(-59.55 -48.32)"/><path class="cls-10" d="M313.58,204.89s-10.58-12.15-10.74-13,3.42-12.41,5.23-12.59,1.72.64-.26,7.29-.63,4.68-.63,4.68,6.7,3.44,8.35,3.3a42.71,42.71,0,0,1,5.19,6.86,3.17,3.17,0,0,1-1.11,4.19C318,206.63,315.55,207.4,313.58,204.89Z" transform="translate(-59.55 -48.32)"/><path class="cls-12" d="M307.18,191.24s-1.35,2,.63-4.68c1.34-4.5,1.81-6.32,1.41-7-.81,3-3,11-3.48,11.7L307,192.4l.38-1.07Z" transform="translate(-59.55 -48.32)"/><path class="cls-10" d="M308.8,196.45s.77-7.49,1.51-9.35,2.15-4.5,2.28-5.19-.95-2.43-2.85,0a12.17,12.17,0,0,0-2.56,5.5c-.19,1-.53,5.71-.53,5.71Z" transform="translate(-59.55 -48.32)"/><path class="cls-10" d="M311.6,199.82s.77-7.5,1.51-9.36,2.15-4.49,2.28-5.18-.95-2.43-2.86,0a12.07,12.07,0,0,0-2.55,5.51c-.2,1-.54,5.71-.54,5.71Z" transform="translate(-59.55 -48.32)"/><path class="cls-10" d="M314.68,204.05s0-7.71.85-9.51,2.42-4.33,2.59-5-.81-2.48-2.86-.22a12.07,12.07,0,0,0-2.88,5.31c-.25,1-.87,5.65-.87,5.65Z" transform="translate(-59.55 -48.32)"/><path class="cls-11" d="M363.58,125a14,14,0,0,1,6.69-4.46c.83-.22.2,1.83.2,1.83s2.69-2.36,5.48-1.68c2.61.63,5.39,2.74,8.36,6.45,0,0-.91,7.53,3.14,7.51l-.21,7.31,6,3.23s1.62,4.1,3.47,2.59,11.07-27-15-29.68C365.25,116.35,363.58,125,363.58,125Z" transform="translate(-59.55 -48.32)"/><path class="cls-10" d="M391.13,148.86c-2.24,2.35-5.5,2.88-7.27,1.19s-1.38-5,.86-7.31,5.49-2.88,7.26-1.19S393.37,146.51,391.13,148.86Z" transform="translate(-59.55 -48.32)"/><path class="cls-17" d="M390.91,143.54a6.21,6.21,0,0,0-5.06,3.8l-.5-.36a27.35,27.35,0,0,1,3.08-1.63,34.23,34.23,0,0,1-3.5,2.73l.29-.93a5.15,5.15,0,0,1,5.69-3.61Z" transform="translate(-59.55 -48.32)"/><path class="cls-10" d="M411.21,314.06s-2.31-.86-2.52-2.27,1-7.37,4-5c0,0,2-3,3.24.37a6.17,6.17,0,0,1,.27,3.13s3.3-1.21,3.19,2.88-.26,7.7-.26,7.7-3.48-1.36-4.11-2.85C415,318,412.16,320,411.21,314.06Z" transform="translate(-59.55 -48.32)"/><path class="cls-10" d="M418.41,320.66s-.63-6,2.09-5.91,1.59,5.6,1.46,7.25-.36,1.7-.36,1.7A4.15,4.15,0,0,1,418.41,320.66Z" transform="translate(-59.55 -48.32)"/><path class="cls-12" d="M412.69,306.81s-1.69,5-1.48,7.25a7.72,7.72,0,0,1-.91-.44Z" transform="translate(-59.55 -48.32)"/><path class="cls-12" d="M416.2,310.31s-1.83,4.35-1.18,7.73a8.22,8.22,0,0,0,.72.91A28.85,28.85,0,0,1,416.2,310.31Z" transform="translate(-59.55 -48.32)"/><path class="cls-17" d="M365.65,150.48s5.36.13,7.6-3.74" transform="translate(-59.55 -48.32)"/><path class="cls-2" d="M368.23,138.75a9.44,9.44,0,0,1,3.67-2.58s1.91-.7,4.44,2.77A7.1,7.1,0,0,1,368.23,138.75Z" transform="translate(-59.55 -48.32)"/><g class="cls-18"><path class="cls-17" d="M373.45,138.7a2.22,2.22,0,0,1-2.28,2.07,2.14,2.14,0,0,1-1.66-2.54,2.2,2.2,0,0,1,2.28-2.06A2.13,2.13,0,0,1,373.45,138.7Z" transform="translate(-59.55 -48.32)"/><path class="cls-11" d="M371.48,138.43a6.5,6.5,0,0,1,1.7.46c0-.07,0-.14.05-.21a1.91,1.91,0,0,0-1.48-2.26,2,2,0,0,0-2,1.83,1.7,1.7,0,0,0,0,.22A6.4,6.4,0,0,1,371.48,138.43Z" transform="translate(-59.55 -48.32)"/></g><path class="cls-19" d="M368.23,138.75c1.39-2.07,4.38-4.07,6.55-1.8a7.46,7.46,0,0,1,1.56,2,14.25,14.25,0,0,0-1.81-1.68c-2.12-1.89-4.57,0-6.3,1.49Z" transform="translate(-59.55 -48.32)"/><path class="cls-2" d="M362.94,138.12a7.86,7.86,0,0,0-2-3.09s-1.73-.89-2.87,1.93C358.08,137,359.27,140,362.94,138.12Z" transform="translate(-59.55 -48.32)"/><g class="cls-20"><path class="cls-17" d="M358.49,136.91c-.16,1.19.35,2.24,1.14,2.33s1.56-.79,1.72-2-.35-2.24-1.14-2.34S358.65,135.72,358.49,136.91Z" transform="translate(-59.55 -48.32)"/><path class="cls-11" d="M359.92,137.05a3.6,3.6,0,0,0-1.28.08,1.41,1.41,0,0,1,0-.2c.14-1.06.83-1.85,1.53-1.77s1.15,1,1,2.08c0,.07,0,.13,0,.2A3.63,3.63,0,0,0,359.92,137.05Z" transform="translate(-59.55 -48.32)"/></g><path class="cls-19" d="M362.94,138.12c-.69-1.23-2.07-4.1-3.73-2.65a11.86,11.86,0,0,0-1.13,1.49,5.66,5.66,0,0,1,.88-1.73c1.85-1.88,3.67,1.23,4,2.89Z" transform="translate(-59.55 -48.32)"/><path class="cls-21" d="M363.58,137c0,2.41-1.57,4.37-3.51,4.37s-3.5-2-3.5-4.37,1.57-4.36,3.5-4.36S363.58,134.64,363.58,137Z" transform="translate(-59.55 -48.32)"/><path class="cls-21" d="M375.89,138.12a4.06,4.06,0,1,1-4.06-4.12A4.1,4.1,0,0,1,375.89,138.12Z" transform="translate(-59.55 -48.32)"/><path class="cls-21" d="M363.45,135.89s.62-3.06,4.54.91" transform="translate(-59.55 -48.32)"/><line class="cls-21" x1="316.22" y1="90.83" x2="328.25" y2="92.92"/><line class="cls-21" x1="298.36" y1="89.15" x2="297.02" y2="88.73"/><path class="cls-12" d="M363.46,136.39,361,140.67c-.55.41-2.9,1-1.83,3s2.45,1.61,2.45,1.61,3.44-1.85,3.48-2.29c.21-2.83.69-7.76-.55-7.52C363.88,135.55,363.46,136.39,363.46,136.39Z" transform="translate(-59.55 -48.32)"/><path class="cls-22" d="M361.91,144.48a4.19,4.19,0,0,1,2.61-1.16" transform="translate(-59.55 -48.32)"/><path class="cls-11" d="M410.28,160.86s2.89-12.35-5.49-17l-.42,1.84s7.82,3.62,5.06,15.36Z" transform="translate(-59.55 -48.32)"/><polygon class="cls-5" points="313.46 245.06 298.32 235.06 310.41 240.5 321.19 240.06 320.35 243.17 313.46 245.06"/><path class="cls-13" d="M366.93,165.81c-2.08,4.51-1.08,7.29,4.26,7,6.41-.31,12.46-3.21,17.61-7a27.56,27.56,0,0,1-13.63,7.54c-6,1.38-13-.16-8.24-7.54Z" transform="translate(-59.55 -48.32)"/><path class="cls-7" d="M386.61,151a1.5,1.5,0,1,1-1.5-1.5A1.5,1.5,0,0,1,386.61,151Z" transform="translate(-59.55 -48.32)"/></g></svg>