<svg id="object" xmlns="http://www.w3.org/2000/svg" viewBox="0 0 553.08 579.25"><defs><style>.cls-1{opacity:0.15;}.cls-2{opacity:0.17;}.cls-3{opacity:0.12;}.cls-4{fill:#f7d77f;}.cls-5{fill:#547c8e;}.cls-6{fill:#f7f7f7;}.cls-7{opacity:0.07;}.cls-8{fill:#ba656d;}</style></defs><title>settingImage</title><g class="cls-1"><path d="M375.35,551.44a.75.75,0,0,0-1.4-.15l-8,16.47-.07-.07c-6.11-5.05-12.32-9.78-18-15.38a142.75,142.75,0,0,1-16.07-19.15,163.14,163.14,0,0,1-21.64-43.81c-12.05-37.27-11-77.73-1.93-115.5.64-2.63-3.32-3.73-4-1.12-10.86,38.6-13.39,80-2.19,118.87a171.26,171.26,0,0,0,21.42,46.46c9.24,14,21.23,28.26,35.41,37.58L346.29,584a.75.75,0,0,0,.31,1.37l37.14,5.12a.75.75,0,0,0,.83-.92Z" transform="translate(-271.8 -114.94)"/><path d="M804.67,279.25a171.17,171.17,0,0,0-29.35-41.91c-11.58-12.18-25.91-24-41.53-30.68l10.88-10.49a.75.75,0,0,0-.55-1.29l-37.45,1.57a.74.74,0,0,0-.65,1.05l15.85,35.9a.75.75,0,0,0,1.41-.1l4.94-17.62.08,0c6.92,3.88,13.87,7.43,20.42,11.94a142.7,142.7,0,0,1,19.22,16A163,163,0,0,1,797,282.92c18.49,34.53,24.64,74.53,22.44,113.31-.16,2.7,3.93,3.08,4.19.38C827.48,356.7,822.59,315.46,804.67,279.25Z" transform="translate(-271.8 -114.94)"/></g><g class="cls-2"><path d="M656.15,256.62l-15.62-6.74a9.62,9.62,0,0,1-2.33-16.24l13.08-10.86a.42.42,0,0,0,.12-.5l-19.83-43.41a.41.41,0,0,0-.45-.24l-16.78,2.78a9.66,9.66,0,0,1-9.34-3.82,9.49,9.49,0,0,1-1.4-8.58l5.14-16.21a.43.43,0,0,0-.18-.48l-40.14-25.8a.42.42,0,0,0-.51,0L555.29,138a9.42,9.42,0,0,1-6.41,2.49,9.56,9.56,0,0,1-9.33-7.11l-4.44-16.42a.43.43,0,0,0-.41-.31H487a.42.42,0,0,0-.4.31l-4.45,16.42a9.55,9.55,0,0,1-9.32,7.11,9.43,9.43,0,0,1-6.42-2.49l-12.61-11.41a.42.42,0,0,0-.51,0l-40.15,25.8a.41.41,0,0,0-.17.48L418.09,169a9.55,9.55,0,0,1-1.4,8.58,9.67,9.67,0,0,1-9.35,3.82l-16.78-2.78a.43.43,0,0,0-.45.24l-19.82,43.41a.43.43,0,0,0,.11.5l13.09,10.86a9.62,9.62,0,0,1-2.34,16.24l-15.61,6.74a.4.4,0,0,0-.25.44l6.79,47.24a.42.42,0,0,0,.36.36l16.89,2.06a9.62,9.62,0,0,1,6.81,14.92l-9.5,14.11a.44.44,0,0,0,0,.51l31.26,36.07a.41.41,0,0,0,.49.1L433.75,365a9.45,9.45,0,0,1,4.18-1,9.72,9.72,0,0,1,6.9,2.92,9.52,9.52,0,0,1,2.71,6.92l-.36,17a.42.42,0,0,0,.31.41l45.78,13.45a.43.43,0,0,0,.48-.18l8.89-14.51a9.62,9.62,0,0,1,16.4,0l8.9,14.51a.42.42,0,0,0,.35.2l.12,0,45.79-13.45a.41.41,0,0,0,.3-.41l-.36-17a9.53,9.53,0,0,1,2.72-6.92,9.71,9.71,0,0,1,6.9-2.92,9.45,9.45,0,0,1,4.18,1l15.32,7.39a.43.43,0,0,0,.5-.1L635,336.26a.41.41,0,0,0,0-.51l-9.49-14.11a9.62,9.62,0,0,1,6.81-14.92l16.88-2.06a.44.44,0,0,0,.37-.36l6.79-47.24A.42.42,0,0,0,656.15,256.62ZM510.84,329.51a68.81,68.81,0,1,1,68.81-68.81A68.8,68.8,0,0,1,510.84,329.51Z" transform="translate(-271.8 -114.94)"/></g><ellipse class="cls-3" cx="270.15" cy="558.03" rx="270.15" ry="21.21"/><path class="cls-4" d="M648.6,254.94,633,248.2A9.61,9.61,0,0,1,630.65,232l13.09-10.87a.41.41,0,0,0,.11-.49L624,177.2a.4.4,0,0,0-.45-.24l-16.79,2.77a9.65,9.65,0,0,1-9.34-3.82,9.54,9.54,0,0,1-1.4-8.57l5.14-16.22a.41.41,0,0,0-.17-.48l-40.15-25.8a.44.44,0,0,0-.51,0l-12.61,11.41a9.44,9.44,0,0,1-6.42,2.49,9.55,9.55,0,0,1-9.32-7.11l-4.45-16.42a.42.42,0,0,0-.4-.31H479.44a.43.43,0,0,0-.41.31l-4.45,16.42a9.54,9.54,0,0,1-9.32,7.11,9.42,9.42,0,0,1-6.41-2.49l-12.62-11.41a.44.44,0,0,0-.51,0l-40.15,25.8a.43.43,0,0,0-.17.48l5.14,16.22a9.48,9.48,0,0,1-1.4,8.57,9.63,9.63,0,0,1-9.34,3.82L383,177a.42.42,0,0,0-.45.24l-19.82,43.41a.41.41,0,0,0,.11.49L375.94,232a9.61,9.61,0,0,1-2.33,16.23L358,254.94a.42.42,0,0,0-.25.45l6.79,47.23a.42.42,0,0,0,.37.36L381.78,305A9.62,9.62,0,0,1,388.59,320l-9.49,14.12a.39.39,0,0,0,0,.5l31.25,36.07a.43.43,0,0,0,.5.1l15.32-7.39a9.59,9.59,0,0,1,4.18-1,9.75,9.75,0,0,1,6.9,2.92,9.55,9.55,0,0,1,2.72,6.92l-.36,17a.43.43,0,0,0,.3.41l45.79,13.44a.42.42,0,0,0,.47-.18l8.89-14.5a9.62,9.62,0,0,1,16.41,0l8.89,14.5a.43.43,0,0,0,.36.2l.11,0,45.79-13.44a.41.41,0,0,0,.3-.41l-.36-17a9.55,9.55,0,0,1,2.72-6.92,9.77,9.77,0,0,1,6.9-2.92,9.59,9.59,0,0,1,4.18,1l15.32,7.39a.43.43,0,0,0,.5-.1l31.25-36.07a.41.41,0,0,0,0-.5L618,320A9.62,9.62,0,0,1,624.81,305L641.7,303a.42.42,0,0,0,.36-.36l6.79-47.23A.42.42,0,0,0,648.6,254.94ZM503.3,327.83A68.81,68.81,0,1,1,572.1,259,68.81,68.81,0,0,1,503.3,327.83Z" transform="translate(-271.8 -114.94)"/><path class="cls-5" d="M774.71,518l-9.23-10.08a7.73,7.73,0,0,1,3.63-12.67l13.17-3.66a.33.33,0,0,0,.24-.32l-.25-38.35a.33.33,0,0,0-.25-.32l-13.22-3.48a7.75,7.75,0,0,1-5.59-5.88,7.61,7.61,0,0,1,1.79-6.74l9.1-10.2a.35.35,0,0,0,0-.41l-20.94-32.12a.35.35,0,0,0-.39-.13l-13,4.21a7.72,7.72,0,0,1-10-8.56l2.14-13.5a.32.32,0,0,0-.19-.36l-35-15.7a.34.34,0,0,0-.4.1l-8.66,10.57a7.69,7.69,0,0,1-9.18,2.15,7.58,7.58,0,0,1-3.88-3.94l-5.5-12.51a.34.34,0,0,0-.36-.2l-37.91,5.71a.34.34,0,0,0-.29.3L629,375.47a7.66,7.66,0,0,1-3.85,5.83,7.77,7.77,0,0,1-8.1-.27l-11.39-7.56a.35.35,0,0,0-.41,0l-28.81,25.3a.32.32,0,0,0-.08.4l6,12.27a7.74,7.74,0,0,1-7,11.14l-13.67-.2a.35.35,0,0,0-.33.24l-10.55,36.87a.34.34,0,0,0,.15.38l11.7,7.06a7.73,7.73,0,0,1,.08,13.18l-11.6,7.22a.33.33,0,0,0-.14.39l11,36.71a.33.33,0,0,0,.33.24l13.67-.38a7.63,7.63,0,0,1,3.38.67,7.8,7.8,0,0,1,4.1,4.41,7.63,7.63,0,0,1-.28,6l-5.86,12.35a.34.34,0,0,0,.08.4L606.59,573a.35.35,0,0,0,.41,0l11.29-7.71a7.72,7.72,0,0,1,12,5.4l1.75,13.55a.33.33,0,0,0,.2.27l.09,0,38,5.2a.32.32,0,0,0,.35-.2L676,577a7.62,7.62,0,0,1,4.27-4.18,7.8,7.8,0,0,1,6,.13,7.6,7.6,0,0,1,2.74,2.08l8.8,10.46a.34.34,0,0,0,.4.09L733,569.42a.32.32,0,0,0,.19-.36l-2.32-13.47a7.73,7.73,0,0,1,9.9-8.7l13.06,4a.34.34,0,0,0,.39-.14l20.51-32.39A.33.33,0,0,0,774.71,518Zm-130.49,5.64a55.28,55.28,0,1,1,73.07-27.81A55.28,55.28,0,0,1,644.22,523.63Z" transform="translate(-271.8 -114.94)"/><path class="cls-6" d="M536.28,511.91l-5.91-6.45a4.95,4.95,0,0,1,2.32-8.11l8.42-2.34a.21.21,0,0,0,.16-.21l-.16-24.54a.21.21,0,0,0-.16-.2l-8.46-2.23a5,5,0,0,1-3.58-3.76,4.91,4.91,0,0,1,1.15-4.32l5.82-6.52a.2.2,0,0,0,0-.26l-13.4-20.56a.21.21,0,0,0-.25-.08L513.93,435a4.79,4.79,0,0,1-3.53-.18,4.91,4.91,0,0,1-2.88-5.3l1.37-8.64a.21.21,0,0,0-.12-.23l-22.39-10a.21.21,0,0,0-.25.06l-5.54,6.77a4.92,4.92,0,0,1-5.87,1.37,4.79,4.79,0,0,1-2.49-2.52l-3.52-8a.22.22,0,0,0-.23-.13l-24.26,3.65a.23.23,0,0,0-.18.19l-1,8.69a4.94,4.94,0,0,1-7.65,3.55l-7.29-4.83a.21.21,0,0,0-.26,0L409.4,435.64a.23.23,0,0,0,0,.26l3.86,7.85a4.94,4.94,0,0,1-4.52,7.12l-8.74-.13a.23.23,0,0,0-.21.16L393,474.49a.23.23,0,0,0,.1.24l7.49,4.52a4.95,4.95,0,0,1,.05,8.44l-7.42,4.62a.21.21,0,0,0-.1.24l7.07,23.5a.23.23,0,0,0,.22.15l8.74-.24a4.93,4.93,0,0,1,2.16.42,5,5,0,0,1,2.63,2.83,4.9,4.9,0,0,1-.18,3.81l-3.75,7.9a.23.23,0,0,0,.05.26l18.65,15.94a.21.21,0,0,0,.26,0l7.23-4.93a4.94,4.94,0,0,1,7.69,3.45l1.12,8.67a.21.21,0,0,0,.13.17l.05,0,24.31,3.33a.22.22,0,0,0,.23-.13l3.41-8.05a4.92,4.92,0,0,1,2.73-2.68,5,5,0,0,1,3.85.09,4.86,4.86,0,0,1,1.76,1.33l5.63,6.69a.22.22,0,0,0,.26.06l22.25-10.34a.21.21,0,0,0,.12-.23L508.23,536a4.95,4.95,0,0,1,6.34-5.57l8.36,2.59a.21.21,0,0,0,.24-.09l13.13-20.73A.22.22,0,0,0,536.28,511.91Zm-83.51,3.61a35.37,35.37,0,1,1,46.76-17.8A35.38,35.38,0,0,1,452.77,515.52Z" transform="translate(-271.8 -114.94)"/><g class="cls-7"><path d="M471.7,320.14a69.09,69.09,0,0,1-31.88-34.52l-.1-.12c-23.88-26.41-47.19-53.33-69.65-80.94l-7.33,16.05a.41.41,0,0,0,.11.49L375.94,232a9.61,9.61,0,0,1-2.33,16.23L358,254.94a.42.42,0,0,0-.25.45l6.79,47.23a.42.42,0,0,0,.37.36L381.78,305A9.62,9.62,0,0,1,388.59,320l-9.49,14.12a.39.39,0,0,0,0,.5l31.25,36.07a.43.43,0,0,0,.5.1l15.32-7.39a9.59,9.59,0,0,1,4.18-1,9.72,9.72,0,0,1,6.9,2.93,9.51,9.51,0,0,1,2.72,6.91l-.36,17a.43.43,0,0,0,.3.41l45.79,13.44a.42.42,0,0,0,.47-.18l8.89-14.5a9.62,9.62,0,0,1,16.41,0l8.89,14.5a.43.43,0,0,0,.36.2l.11,0,23-6.76C519.94,370.82,495.64,345.65,471.7,320.14Z" transform="translate(-271.8 -114.94)"/><path d="M662.78,528.34a55.34,55.34,0,0,1-51.15-57.85q-21.54-24.14-43.42-48l-6.54-.09a.35.35,0,0,0-.33.24l-10.55,36.87a.34.34,0,0,0,.15.38l11.7,7.06a7.73,7.73,0,0,1,.08,13.18l-11.6,7.22a.33.33,0,0,0-.14.39l11,36.71a.33.33,0,0,0,.33.24l13.67-.38a7.63,7.63,0,0,1,3.38.67,7.8,7.8,0,0,1,4.1,4.41,7.63,7.63,0,0,1-.28,6l-5.86,12.35a.34.34,0,0,0,.08.4L606.59,573a.35.35,0,0,0,.41,0l11.29-7.71a7.72,7.72,0,0,1,12,5.4l1.75,13.55a.33.33,0,0,0,.2.27l.09,0,38,5.2a.32.32,0,0,0,.35-.2L676,577a7.62,7.62,0,0,1,4.27-4.18,7.8,7.8,0,0,1,6,.13,7.6,7.6,0,0,1,2.74,2.08l8.8,10.46a.34.34,0,0,0,.4.09l10.53-4.89Q685.75,554.54,662.78,528.34Z" transform="translate(-271.8 -114.94)"/><path d="M484.74,514A35.38,35.38,0,0,1,439.5,461.3q-12.64-14.94-25.16-30l-4.94,4.34a.23.23,0,0,0,0,.26l3.86,7.85a4.94,4.94,0,0,1-4.52,7.12l-8.74-.13a.23.23,0,0,0-.21.16L393,474.49a.23.23,0,0,0,.1.24l7.49,4.52a4.95,4.95,0,0,1,.05,8.44l-7.42,4.62a.21.21,0,0,0-.1.24l7.07,23.5a.23.23,0,0,0,.22.15l8.74-.24a4.93,4.93,0,0,1,2.16.42,5,5,0,0,1,2.63,2.83,4.9,4.9,0,0,1-.18,3.81l-3.75,7.9a.23.23,0,0,0,.05.26l18.65,15.94a.21.21,0,0,0,.26,0l7.23-4.93a4.94,4.94,0,0,1,7.69,3.45l1.12,8.67a.21.21,0,0,0,.13.17l.05,0,24.31,3.33a.22.22,0,0,0,.23-.13l3.41-8.05a4.92,4.92,0,0,1,2.73-2.68,5,5,0,0,1,3.85.09,4.86,4.86,0,0,1,1.76,1.33l5.63,6.69a.22.22,0,0,0,.26.06l22.25-10.34a.21.21,0,0,0,.12-.23l-.43-2.47Q497,528.08,484.74,514Z" transform="translate(-271.8 -114.94)"/></g><path class="cls-8" d="M375.35,543a.75.75,0,0,0-1.4-.16l-8,16.47-.07-.06c-6.11-5.06-12.32-9.78-18-15.38a142.83,142.83,0,0,1-16.07-19.16,162.85,162.85,0,0,1-21.64-43.81c-12.05-37.27-11-77.72-1.93-115.49.64-2.64-3.32-3.74-4-1.12-10.86,38.6-13.39,80-2.19,118.87a171.2,171.2,0,0,0,21.42,46.45c9.24,14,21.23,28.26,35.41,37.58l-12.57,8.39a.75.75,0,0,0,.31,1.36L383.74,582a.74.74,0,0,0,.83-.91Z" transform="translate(-271.8 -114.94)"/><path class="cls-8" d="M804.67,270.78a171.12,171.12,0,0,0-29.35-41.9c-11.58-12.18-25.91-24-41.53-30.68l10.88-10.49a.75.75,0,0,0-.55-1.29L706.67,188A.75.75,0,0,0,706,189l15.85,35.9a.75.75,0,0,0,1.41-.1l4.94-17.63.08,0c6.92,3.89,13.87,7.43,20.42,11.94a142,142,0,0,1,19.22,16A162.6,162.6,0,0,1,797,274.46C815.52,309,821.67,349,819.47,387.76c-.16,2.71,3.93,3.09,4.19.38C827.48,348.23,822.59,307,804.67,270.78Z" transform="translate(-271.8 -114.94)"/></svg>